<svg xmlns="http://www.w3.org/2000/svg" viewBox="0 0 25 25"><defs><style>.cls-1{fill:#231f20;}.cls-2{font-size:6.19px;fill:#fff;font-family:D-DIN-Bold, D-DIN;font-weight:700;}</style></defs><title>DRBIcons</title><g id="new"><path class="cls-1" d="M22.21,1.92l-8.7.17a1,1,0,0,0-.69.3L1,14.2a1,1,0,0,0,0,1.43l8.51,8.51a1,1,0,0,0,1.43,0L22.75,12.32a1,1,0,0,0,.3-.69l.17-8.7A1,1,0,0,0,22.21,1.92ZM19,8.3a1.53,1.53,0,1,1,0-2.17A1.53,1.53,0,0,1,19,8.3Z"/><text class="cls-2" transform="translate(8.53 19.68) rotate(-45)">NEW</text></g></svg>