<svg xmlns="http://www.w3.org/2000/svg" viewBox="0 0 25 25"><defs><style>.cls-1{fill:#366d7c;}</style></defs><title>DRBIcons</title><g id="sparkle"><path class="cls-1" d="M9.9,21.73C8.61,15,7.38,13.79.68,12.5,7.38,11.21,8.61,10,9.9,3.27c1.29,6.71,2.53,7.94,9.23,9.23C12.43,13.79,11.19,15,9.9,21.73Z"/><path class="cls-1" d="M9.9,3.91c1.22,6,2.62,7.37,8.59,8.59-6,1.22-7.37,2.62-8.59,8.59-1.22-6-2.61-7.37-8.58-8.59,6-1.22,7.36-2.62,8.58-8.59m0-1.31C8.54,10,7.43,11.13,0,12.5,7.43,13.87,8.54,15,9.9,22.4c1.37-7.42,2.48-8.53,9.91-9.9C12.38,11.13,11.27,10,9.9,2.6Z"/><path class="cls-1" d="M19.58,10.17c-.67-3.32-1.43-4.08-4.75-4.75C18.15,4.74,18.91,4,19.58.66,20.26,4,21,4.74,24.34,5.42,21,6.09,20.26,6.85,19.58,10.17Z"/><path class="cls-1" d="M19.58,1.26C20.21,4,21,4.79,23.74,5.42,21,6,20.21,6.84,19.58,9.57,19,6.84,18.16,6,15.43,5.42,18.16,4.79,19,4,19.58,1.26m0-1.26c-.74,4.06-1.35,4.67-5.41,5.42,4.06.74,4.67,1.35,5.41,5.41.75-4.06,1.36-4.67,5.42-5.41C20.94,4.67,20.33,4.06,19.58,0Z"/><path class="cls-1" d="M17.92,24.34c-.68-3.33-1.43-4.08-4.76-4.76,3.33-.67,4.08-1.43,4.76-4.75.67,3.32,1.43,4.08,4.75,4.75C19.35,20.26,18.59,21,17.92,24.34Z"/><path class="cls-1" d="M17.92,15.43c.62,2.73,1.42,3.53,4.15,4.15-2.73.63-3.53,1.43-4.15,4.16-.63-2.73-1.43-3.53-4.16-4.16,2.73-.62,3.53-1.42,4.16-4.15m0-1.26c-.75,4.06-1.36,4.67-5.42,5.41,4.06.75,4.67,1.36,5.42,5.42.74-4.06,1.35-4.67,5.41-5.42-4.06-.74-4.67-1.35-5.41-5.41Z"/></g></svg>