<svg xmlns="http://www.w3.org/2000/svg" viewBox="0 0 25 25"><defs><style>.cls-1{fill:#394ea2;}.cls-2{fill:#fff;}</style></defs><title>DRBIcons</title><g id="new"><path class="cls-1" d="M22.21,1.92l-8.7.17a1,1,0,0,0-.69.3L1,14.2a1,1,0,0,0,0,1.43l8.51,8.51a1,1,0,0,0,1.43,0L22.75,12.32a1,1,0,0,0,.3-.69l.17-8.7A1,1,0,0,0,22.21,1.92ZM19,8.3a1.53,1.53,0,1,1,0-2.17A1.53,1.53,0,0,1,19,8.3Z"/><path class="cls-2" d="M11.1,17.16l-.57.57-3-.77,1.89,1.89-.58.57-3-3,.57-.58,3,.78L7.51,14.71l.57-.57Z"/><path class="cls-2" d="M10.42,14.3l1.14-1.15.5.5L10.92,14.8l.77.77L13,14.23l.49.5-1.91,1.92-3-3,1.92-1.92.5.5L9.67,13.55Z"/><path class="cls-2" d="M16.6,11.67l-.53.52L13.28,10.5,15,13.29l-.52.52-3.77-2.28.58-.57,2.59,1.68-1.7-2.58.72-.71L15.47,11,13.76,8.45l.54-.53Z"/></g></svg>