<svg id="camera" xmlns="http://www.w3.org/2000/svg" viewBox="0 0 25 25"><defs><style>.cls-1{fill:#231f20;}.cls-2{fill:#414042;}.cls-3{fill:#fff;}</style></defs><title>DRBIcons</title><rect class="cls-1" y="5.34" width="25" height="16.05" rx="1.25"/><rect class="cls-2" y="10.3" width="25" height="8.29"/><circle class="cls-3" cx="12.5" cy="14.34" r="5.64"/><circle class="cls-1" cx="12.5" cy="14.34" r="4.04"/><circle class="cls-3" cx="12.5" cy="14.34" r="2.71"/><rect class="cls-3" x="20.39" y="6.32" width="3.42" height="1.26" rx="0.25"/><path class="cls-1" d="M2.21,4.41h3.7a.41.41,0,0,1,.41.41v.52a0,0,0,0,1,0,0H1.81a0,0,0,0,1,0,0V4.81A.41.41,0,0,1,2.21,4.41Z"/><path class="cls-1" d="M14.52,3.62H10.34a1.25,1.25,0,0,0-1,.51L8.45,5.34h8l-.88-1.21A1.25,1.25,0,0,0,14.52,3.62Z"/></svg>