<svg xmlns="http://www.w3.org/2000/svg" viewBox="0 0 25 25"><defs><style>.cls-1{fill:#231f20;}.cls-2{fill:#fff;}</style></defs><title>DRBIcons</title><g id="temperature"><path class="cls-1" d="M15.63,15.62V3.13a3.13,3.13,0,0,0-6.26,0V15.62a5.22,5.22,0,1,0,6.26,0Z"/><circle class="cls-2" cx="12.5" cy="19.83" r="4.06"/><path class="cls-2" d="M12.47,1.29h.06A2.07,2.07,0,0,1,14.6,3.36V18.61a0,0,0,0,1,0,0H10.4a0,0,0,0,1,0,0V3.36A2.07,2.07,0,0,1,12.47,1.29Z"/><circle class="cls-1" cx="12.47" cy="19.83" r="2.1"/><rect class="cls-1" x="11.81" y="12.53" width="1.33" height="6.29" rx="0.66"/><path class="cls-1" d="M13.24,10.83h2.39a0,0,0,0,1,0,0v1.1a0,0,0,0,1,0,0H13.24a.1.1,0,0,1-.1-.1v-.9A.1.1,0,0,1,13.24,10.83Z"/><path class="cls-1" d="M13.81,8.84h1.82a0,0,0,0,1,0,0v1.1a0,0,0,0,1,0,0H13.81a.1.1,0,0,1-.1-.1v-.9A.1.1,0,0,1,13.81,8.84Z"/><path class="cls-1" d="M13.24,6.86h2.39a0,0,0,0,1,0,0V8a0,0,0,0,1,0,0H13.24a.1.1,0,0,1-.1-.1V7A.1.1,0,0,1,13.24,6.86Z"/><path class="cls-1" d="M13.81,4.87h1.82a0,0,0,0,1,0,0V6a0,0,0,0,1,0,0H13.81a.1.1,0,0,1-.1-.1V5A.1.1,0,0,1,13.81,4.87Z"/><path class="cls-1" d="M13.24,2.88h2.39a0,0,0,0,1,0,0V4a0,0,0,0,1,0,0H13.24a.1.1,0,0,1-.1-.1V3A.1.1,0,0,1,13.24,2.88Z"/></g></svg>